<svg width="108" height="108" viewBox="0 0 108 108" fill="none" xmlns="http://www.w3.org/2000/svg">
<rect width="108" height="108" rx="24" fill="#06332B"/>
<path d="M30.5625 35.25C29.8166 35.25 29.1012 35.5463 28.5738 36.0738C28.0463 36.6012 27.75 37.3166 27.75 38.0625C27.75 38.8084 28.0463 39.5238 28.5738 40.0512C29.1012 40.5787 29.8166 40.875 30.5625 40.875H45.5625C46.3084 40.875 47.0238 40.5787 47.5512 40.0512C48.0787 39.5238 48.375 38.8084 48.375 38.0625C48.375 37.3166 48.0787 36.6012 47.5512 36.0738C47.0238 35.5463 46.3084 35.25 45.5625 35.25H30.5625Z" fill="#0EA68B"/>
<path fill-rule="evenodd" clip-rule="evenodd" d="M88.455 39.015C88.22 39.0025 87.97 38.9975 87.705 39H77.3063C68.79 39 61.5 45.51 61.5 54C61.5 62.49 68.79 69 77.3063 69H87.705C87.97 69.0025 88.22 68.9975 88.455 68.985C91.9162 68.775 94.9763 66.1463 95.235 62.4713C95.25 62.2313 95.25 61.9725 95.25 61.7325V46.2675C95.25 46.0275 95.25 45.7688 95.235 45.5288C94.9763 41.8538 91.9162 39.2288 88.455 39.015ZM76.3913 58.0013C78.5813 58.0013 80.3587 56.2088 80.3587 54C80.3587 51.7875 78.5813 49.9988 76.3913 49.9988C74.2013 49.9988 72.4162 51.7913 72.4162 54C72.4162 56.2125 74.1975 58.0013 76.3913 58.0013Z" fill="#0EA68B"/>
<path opacity="0.5" d="M88.275 39.0075C88.275 34.5787 88.11 29.8275 85.2825 26.4262C85.0052 26.0938 84.7137 25.7735 84.4087 25.4662C81.6 22.6612 78.0412 21.4163 73.6462 20.8238C69.3712 20.25 63.915 20.25 57.0225 20.25H49.1025C42.21 20.25 36.75 20.25 32.475 20.8238C28.08 21.4163 24.5212 22.6612 21.7125 25.4662C18.9075 28.275 17.6625 31.8338 17.07 36.2288C16.5 40.5038 16.5 45.96 16.5 52.8525V53.2725C16.5 60.165 16.5 65.625 17.0738 69.8963C17.6663 74.2913 18.9112 77.85 21.7162 80.6587C24.525 83.4637 28.0837 84.7088 32.4787 85.3013C36.7537 85.875 42.21 85.875 49.1025 85.875H57.0225C63.915 85.875 69.375 85.875 73.6462 85.3013C78.0412 84.7088 81.6 83.4637 84.4087 80.6587C85.1712 79.8887 85.8287 79.0637 86.3812 78.1837C88.0687 75.4837 88.2712 72.1762 88.2712 68.9962L87.7087 69H77.3062C68.79 69 61.5 62.49 61.5 54C61.5 45.51 68.79 39 77.3062 39H87.705C87.9025 39 88.095 39.0025 88.275 39.0075Z" fill="#0EA68B"/>
</svg>
